<svg width="238" height="195" viewBox="0 0 238 195" fill="none" xmlns="http://www.w3.org/2000/svg">
<g clip-path="url(#clip0_41_162)">
<path opacity="0.7" d="M23.6573 91.9698C4.54959 100.085 -4.3977 122.235 3.71902 141.346L42.9697 233.766C51.0865 252.877 73.2384 261.819 92.3461 253.704L184.766 214.453C186.067 213.901 187.314 213.273 188.521 212.592L120.024 51.3092C118.696 51.7048 117.378 52.1663 116.077 52.719L23.6573 91.9698ZM128.489 49.8359L143.984 86.3208L167.089 76.5082L165.453 72.6573C159.059 57.6007 143.954 48.8993 128.489 49.8359ZM71.3983 108.057C99.0009 96.3344 130.997 109.254 142.72 136.857C154.443 164.46 141.523 196.456 113.92 208.178C86.3172 219.901 54.3213 206.981 42.5985 179.379C30.8756 151.776 43.7956 119.78 71.3983 108.057ZM74.6691 115.759C51.314 125.678 40.3811 152.753 50.3001 176.108C54.9022 186.944 63.22 195.062 73.1239 199.706C77.6739 188.233 87.0785 178.67 99.2009 173.521C111.292 168.386 124.742 168.23 136.16 172.917C139.684 162.57 139.617 150.956 135.018 140.128C125.099 116.773 98.0243 105.84 74.6691 115.759ZM147.255 94.0225L160.338 124.829L183.443 115.016L170.36 84.2098L147.255 94.0225ZM82.0287 133.088C91.5825 129.03 102.659 133.503 106.717 143.057C110.774 152.611 106.302 163.687 96.7477 167.745C87.1938 171.802 76.117 167.33 72.0595 157.776C68.002 148.222 72.4748 137.145 82.0287 133.088ZM163.609 132.531L176.693 163.337L199.798 153.524L186.714 122.718L163.609 132.531ZM179.964 171.039L195.459 207.524C206.872 197.045 211.099 180.134 204.704 165.077L203.069 161.226L179.964 171.039Z" fill="black"/>
</g>
<defs>
<clipPath id="clip0_41_162">
<rect width="238" height="195" fill="white"/>
</clipPath>
</defs>
</svg>
