<svg width="228" height="399" viewBox="0 0 228 399" fill="none" xmlns="http://www.w3.org/2000/svg">
<g clip-path="url(#clip0_44_163)">
<g opacity="0.7">
<path fill-rule="evenodd" clip-rule="evenodd" d="M20.7825 315.024C9.30466 318.1 2.49318 329.897 5.56866 341.375L11.1373 362.158C11.9916 365.346 15.2688 367.238 18.4571 366.384L39.2397 360.815C41.7901 360.132 44.412 361.646 45.0955 364.196C45.7789 366.747 44.2651 369.369 41.7146 370.052L20.9321 375.621C17.7438 376.475 15.8517 379.752 16.706 382.94L47.0243 496.09C50.0998 507.568 61.8976 514.379 73.3755 511.304L184.216 481.604C187.404 480.75 189.296 477.473 188.442 474.284L159.98 368.063L139.197 373.631C139.002 373.684 138.805 373.723 138.61 373.75C138.428 373.824 138.238 373.888 138.043 373.941C135.492 374.624 132.87 373.11 132.187 370.56L125.999 347.468L70.5793 362.318L90.379 436.211C90.7207 437.487 92.0315 438.243 93.3069 437.902L123.326 429.858C125.877 429.175 128.498 430.688 129.182 433.239C129.865 435.79 128.352 438.411 125.801 439.095L51.9076 458.894C49.3571 459.578 46.7352 458.064 46.0517 455.514C45.3683 452.963 46.8821 450.341 49.4326 449.658L79.4518 441.614C80.7272 441.272 81.484 439.962 81.1423 438.686L60.1051 360.174C59.552 358.11 60.4383 355.999 62.1481 354.907C62.1938 354.868 62.2397 354.829 62.2869 354.791L127.544 302.422C129.603 300.77 132.613 301.099 134.265 303.159C135.918 305.218 135.589 308.227 133.529 309.88L94.375 341.301C92.3573 342.921 93.9911 346.145 96.49 345.475L147.771 331.735C149.046 331.393 149.803 330.082 149.461 328.807L141.108 297.633C140.425 295.082 141.939 292.46 144.489 291.777C147.039 291.094 149.661 292.607 150.345 295.158L158.698 326.332C159.04 327.607 160.35 328.364 161.626 328.022L180.479 322.97C182.51 322.426 182.9 319.713 181.103 318.619L160.712 306.208C158.456 304.835 157.741 301.893 159.113 299.638C160.487 297.382 163.428 296.666 165.683 298.039L199.572 318.666C200.286 319.1 200.846 319.692 201.234 320.37C201.636 320.871 201.942 321.462 202.119 322.122C202.803 324.673 201.289 327.294 198.738 327.978L161.792 337.878L197.988 472.964C198.671 475.515 201.293 477.028 203.844 476.345C206.394 475.661 207.908 473.04 207.225 470.489L177.525 359.649C176.842 357.098 178.355 354.476 180.906 353.793C183.456 353.11 186.078 354.623 186.762 357.174L216.152 466.86C217.006 470.048 220.283 471.94 223.472 471.086L228.09 469.848C239.568 466.773 246.379 454.975 243.304 443.497L201.848 288.782C198.773 277.305 186.975 270.493 175.497 273.569L20.7825 315.024ZM40.9079 339.331C43.4583 338.648 44.9722 336.026 44.2887 333.475C43.6053 330.925 40.9834 329.411 38.4329 330.094L31.5054 331.951C28.9549 332.634 27.4411 335.256 28.1245 337.807C28.808 340.357 31.4299 341.871 33.9804 341.187L40.9079 339.331ZM68.535 326.979C69.2185 329.529 67.7046 332.151 65.1542 332.834L58.2267 334.691C55.6762 335.374 53.0543 333.86 52.3708 331.31C51.6874 328.759 53.2012 326.137 55.7517 325.454L62.6792 323.598C65.2297 322.914 67.8516 324.428 68.535 326.979Z" fill="black"/>
<path d="M135.855 347.302C135.513 346.027 136.27 344.716 137.545 344.374L150.246 340.971C151.521 340.629 152.832 341.386 153.174 342.662L156.886 356.517C157.228 357.792 156.471 359.103 155.196 359.445L142.495 362.848C141.22 363.189 139.909 362.433 139.567 361.157L135.855 347.302Z" fill="black"/>
</g>
</g>
<defs>
<clipPath id="clip0_44_163">
<rect width="228" height="399" fill="white"/>
</clipPath>
</defs>
</svg>
