<svg width="39" height="38" viewBox="0 0 39 38" fill="none" xmlns="http://www.w3.org/2000/svg">
<path d="M34.5975 11.9396C34.897 12.5435 34.9049 13.3495 34.5046 14.3792C34.1041 15.4093 33.3216 16.5846 32.1807 17.8289C29.9024 20.3135 26.3051 22.9535 21.9218 25.1276C17.5386 27.3017 13.26 28.5683 9.90327 28.8786C8.22226 29.0341 6.81308 28.9458 5.75064 28.6413C4.68864 28.337 4.05166 27.843 3.75215 27.2392C3.45263 26.6353 3.44478 25.8293 3.8451 24.7996C4.24559 23.7695 5.02803 22.5942 6.16897 21.3499C8.44726 18.8653 12.0446 16.2253 16.4278 14.0512C20.8111 11.877 25.0896 10.6105 28.4464 10.3002C30.1274 10.1447 31.5366 10.233 32.599 10.5374C33.661 10.8418 34.298 11.3358 34.5975 11.9396Z" stroke="white" stroke-width="1.5"/>
<path d="M23.776 35.1934C23.271 35.3757 22.5792 35.2911 21.6713 34.7458C20.7699 34.2044 19.7602 33.2662 18.7116 31.9645C16.6191 29.3671 14.479 25.4563 12.8154 20.8465C11.1518 16.2368 10.3013 11.8606 10.2528 8.52552C10.2285 6.85416 10.4064 5.48737 10.7543 4.49514C11.1047 3.49575 11.5831 2.98887 12.0881 2.8066C12.5932 2.62433 13.285 2.70891 14.1929 3.25421C15.0942 3.79561 16.104 4.73378 17.1526 6.03548C19.245 8.63292 21.3852 12.5437 23.0488 17.1535C24.7124 21.7632 25.5629 26.1394 25.6114 29.4745C25.6357 31.1458 25.4578 32.5126 25.1099 33.5049C24.7595 34.5042 24.2811 35.0111 23.776 35.1934Z" stroke="white" stroke-width="1.5"/>
<ellipse cx="13.4357" cy="21.2616" rx="2.63173" ry="2.56247" fill="white"/>
<ellipse cx="22.1619" cy="19.1839" rx="2.63173" ry="2.56247" fill="white"/>
<circle cx="18.6299" cy="22.7852" r="2.56247" fill="white"/>
<ellipse cx="17.1062" cy="17.591" rx="2.56247" ry="2.63173" fill="white"/>
<circle cx="10.6621" cy="6.66215" r="2.66215" fill="white"/>
<circle cx="4.66215" cy="23.6621" r="2.66215" fill="white"/>
</svg>
